<svg width="1020" height="283.64442" xmlns="http://www.w3.org/2000/svg" style="vector-effect: non-scaling-stroke;" stroke="null">
 <defs stroke="null">
  <clipPath style="vector-effect: non-scaling-stroke;" stroke="null" clipPathUnits="userSpaceOnUse" id="clipPath4288">
   <path style="vector-effect: non-scaling-stroke;" stroke="null" d="m-16.741646,-54.71413l792,0l0,612l-792,0l0,-612z" id="path4286"/>
  </clipPath>
  <clipPath style="vector-effect: non-scaling-stroke;" stroke="null" clipPathUnits="userSpaceOnUse" id="clipPath4240">
   <path style="vector-effect: non-scaling-stroke;" stroke="null" d="m-16.741646,-54.71413l792,0l0,612l-792,0l0,-612z" id="path4238"/>
  </clipPath>
  <clipPath style="vector-effect: non-scaling-stroke;" stroke="null" clipPathUnits="userSpaceOnUse" id="clipPath4220">
   <path style="vector-effect: non-scaling-stroke;" stroke="null" d="m-16.741646,-54.71413l792,0l0,612l-792,0l0,-612z" id="path4218"/>
  </clipPath>
  <clipPath style="vector-effect: non-scaling-stroke;" stroke="null" clipPathUnits="userSpaceOnUse" id="clipPath4200">
   <path style="vector-effect: non-scaling-stroke;" stroke="null" d="m-16.741646,-54.71413l792,0l0,612l-792,0l0,-612z" id="path4198"/>
  </clipPath>
  <clipPath style="vector-effect: non-scaling-stroke;" stroke="null" clipPathUnits="userSpaceOnUse" id="clipPath4180">
   <path style="vector-effect: non-scaling-stroke;" stroke="null" d="m-16.741646,-54.71413l792,0l0,612l-792,0l0,-612z" id="path4178"/>
  </clipPath>
  <clipPath style="vector-effect: non-scaling-stroke;" stroke="null" clipPathUnits="userSpaceOnUse" id="clipPath4156">
   <path style="vector-effect: non-scaling-stroke;" stroke="null" d="m-16.741646,-54.71413l792,0l0,612l-792,0l0,-612z" id="path4154"/>
  </clipPath>
 </defs>
 <metadata stroke="null" id="metadata5073">image/svg+xml</metadata>
 <g stroke="null">
  <title stroke="null">background</title>
  <rect stroke="null" fill="none" id="canvas_background" height="402" width="582" y="-1" x="-1"/>
 </g>
 <g stroke="null">
  <title stroke="null">Layer 1</title>
  <g stroke="null" id="layer1">
   <path id="svg_6" d="m161.729991,141.568947l0,0c0,-8.008128 6.491873,-14.499998 14.500005,-14.499998l0,0c3.845638,0 7.533771,1.527674 10.25305,4.246951c2.719278,2.719277 4.246951,6.407409 4.246951,10.253047l0,0c0,8.008126 -6.491872,14.499997 -14.500001,14.499997l0,0c-8.008132,0 -14.500005,-6.491871 -14.500005,-14.499997zm14.500005,-14.499998l0,28.999995m-14.500005,-14.499997l29.000006,0" stroke-width="1.5" fill="#072342"/>
   <rect id="svg_8" height="25.11871" width="5.080274" y="153.850603" x="175.588616" stroke-width="1.5" fill="#072342"/>
   <rect stroke="null" id="svg_9" height="51.809474" width="2.297" y="127.011403" x="173.773284" stroke-width="1.5" fill="#ffffff"/>
   <g stroke="null" id="g4144" transform="matrix(5.7301796,0,0,-5.7301796,513.67103,116.33681) ">
    <path fill="#072342" fill-rule="nonzero" d="m-8.370823,-27.357065l-1.124,0l-0.711,2.629l-0.718,-2.629l-1.117,0l-1.213,4.254l1.073,0l0.743,-2.679l0.73,2.679l0.997,0l0.731,-2.679l0.742,2.679l1.079,0l-1.212,-4.254z" id="path4146"/>
   </g>
   <path fill="#072342" fill-rule="nonzero" stroke-width="5.730179" d="m482.26081,248.723095l6.00516,0l0,24.37624l-6.00516,0l0,-24.37624z" id="path4148"/>
   <g stroke="null" transform="matrix(5.7301796,0,0,-5.7301796,-1809.0259,1720.9092) " id="g4150">
    <g stroke="null" id="g4152" clip-path="url(#clipPath4156)">
     <g stroke="null" id="g4158">
      <path fill="#072342" fill-rule="nonzero" d="m405.553463,252.664236l-1.283,1.461l-0.304,0l0,-1.461l-1.048,0l0,4.254l2.152,0c0.462,0 0.832,-0.128 1.111,-0.384c0.28,-0.256 0.419,-0.592 0.419,-1.006c0,-0.347 -0.099,-0.641 -0.298,-0.88c-0.199,-0.239 -0.472,-0.397 -0.819,-0.473l1.333,-1.511l-1.263,0zm0.666,2.336c0.186,0 0.335,0.047 0.448,0.14c0.111,0.094 0.168,0.218 0.168,0.375c0,0.152 -0.057,0.275 -0.168,0.368c-0.113,0.093 -0.262,0.14 -0.448,0.14l-0.99,0l0,-1.023l0.99,0z" id="path4160"/>
     </g>
    </g>
   </g>
   <g stroke="null" id="g4162" transform="matrix(5.7301796,0,0,-5.7301796,598.70865,116.33681) ">
    <path fill="#072342" fill-rule="nonzero" d="m-8.370823,-27.357065l-3.314,0l0,4.254l3.295,0l0,-0.901l-2.248,0l0,-0.801l2.064,0l0,-0.85l-2.064,0l0,-0.801l2.267,0l0,-0.901z" id="path4164"/>
   </g>
   <g stroke="null" id="g4166" transform="matrix(5.7301796,0,0,-5.7301796,627.74795,116.33681) ">
    <path fill="#072342" fill-rule="nonzero" d="m-8.370823,-27.357065l-3.143,0l0,4.254l1.048,0l0,-3.34l2.095,0l0,-0.914z" id="path4168"/>
   </g>
   <g stroke="null" id="g4170" transform="matrix(5.7301796,0,0,-5.7301796,657.36708,116.33681) ">
    <path fill="#072342" fill-rule="nonzero" d="m-8.370823,-27.357065l-3.314,0l0,4.254l3.295,0l0,-0.901l-2.248,0l0,-0.801l2.064,0l0,-0.85l-2.064,0l0,-0.801l2.267,0l0,-0.901z" id="path4172"/>
   </g>
   <g stroke="null" transform="matrix(5.7301796,0,0,-5.7301796,-1809.0259,1720.9092) " id="g4174">
    <g stroke="null" id="g4176" clip-path="url(#clipPath4180)">
     <g stroke="null" id="g4182">
      <path fill="#072342" fill-rule="nonzero" d="m426.813778,256.68685c0.313,-0.218 0.51,-0.52 0.59,-0.905l-1.028,-0.209c-0.038,0.19 -0.127,0.337 -0.267,0.441c-0.139,0.104 -0.298,0.155 -0.476,0.155c-0.17,0 -0.307,-0.041 -0.413,-0.123c-0.105,-0.083 -0.158,-0.185 -0.158,-0.309c0,-0.186 0.114,-0.304 0.342,-0.355l0.883,-0.197c0.779,-0.173 1.168,-0.586 1.168,-1.238c0,-0.436 -0.167,-0.774 -0.501,-1.016c-0.335,-0.241 -0.752,-0.362 -1.251,-0.362c-0.495,0 -0.916,0.113 -1.261,0.34c-0.344,0.227 -0.545,0.542 -0.6,0.949l1.08,0.209c0.101,-0.418 0.381,-0.628 0.838,-0.628c0.195,0 0.348,0.041 0.46,0.121c0.113,0.08 0.169,0.186 0.169,0.317c0,0.102 -0.029,0.182 -0.086,0.242c-0.057,0.058 -0.16,0.103 -0.308,0.133l-0.889,0.19c-0.762,0.174 -1.143,0.584 -1.143,1.232c0,0.411 0.155,0.736 0.463,0.978c0.309,0.241 0.716,0.362 1.22,0.362c0.465,0 0.855,-0.109 1.168,-0.327" id="path4184"/>
     </g>
     <g stroke="null" id="g4186">
      <path fill="#072342" fill-rule="nonzero" d="m432.084774,256.68685c0.313,-0.218 0.51,-0.52 0.59,-0.905l-1.028,-0.209c-0.039,0.19 -0.127,0.337 -0.267,0.441c-0.14,0.104 -0.298,0.155 -0.476,0.155c-0.17,0 -0.307,-0.041 -0.413,-0.123c-0.106,-0.083 -0.158,-0.185 -0.158,-0.309c0,-0.186 0.114,-0.304 0.342,-0.355l0.883,-0.197c0.778,-0.173 1.168,-0.586 1.168,-1.238c0,-0.436 -0.167,-0.774 -0.501,-1.016c-0.335,-0.241 -0.752,-0.362 -1.251,-0.362c-0.495,0 -0.916,0.113 -1.261,0.34c-0.345,0.227 -0.545,0.542 -0.6,0.949l1.08,0.209c0.101,-0.418 0.381,-0.628 0.838,-0.628c0.195,0 0.348,0.041 0.46,0.121c0.113,0.08 0.169,0.186 0.169,0.317c0,0.102 -0.029,0.182 -0.086,0.242c-0.057,0.058 -0.16,0.103 -0.308,0.133l-0.889,0.19c-0.762,0.174 -1.143,0.584 -1.143,1.232c0,0.411 0.155,0.736 0.463,0.978c0.309,0.241 0.716,0.362 1.22,0.362c0.465,0 0.855,-0.109 1.168,-0.327" id="path4188"/>
     </g>
    </g>
   </g>
   <g stroke="null" id="g4190" transform="matrix(5.7301796,0,0,-5.7301796,751.10593,102.36537) ">
    <path fill="#072342" fill-rule="nonzero" d="m-8.370823,-27.357065l1.994,0l0,-0.915l-1.994,0l0,-1.523l-1.048,0l0,4.254l3.289,0l0,-0.921l-2.241,0l0,-0.895z" id="path4192"/>
   </g>
   <g stroke="null" transform="matrix(5.7301796,0,0,-5.7301796,-1809.0259,1720.9092) " id="g4194">
    <g stroke="null" id="g4196" clip-path="url(#clipPath4200)">
     <g stroke="null" id="g4202">
      <path fill="#072342" fill-rule="nonzero" d="m445.064663,252.664236l-1.283,1.461l-0.304,0l0,-1.461l-1.048,0l0,4.254l2.152,0c0.462,0 0.832,-0.128 1.111,-0.384c0.28,-0.256 0.419,-0.592 0.419,-1.006c0,-0.347 -0.099,-0.641 -0.298,-0.88c-0.199,-0.239 -0.472,-0.397 -0.819,-0.473l1.333,-1.511l-1.263,0zm0.666,2.336c0.186,0 0.335,0.047 0.448,0.14c0.112,0.094 0.168,0.218 0.168,0.375c0,0.152 -0.056,0.275 -0.168,0.368c-0.113,0.093 -0.262,0.14 -0.448,0.14l-0.99,0l0,-1.023l0.99,0z" id="path4204"/>
     </g>
    </g>
   </g>
   <g stroke="null" id="g4206" transform="matrix(5.7301796,0,0,-5.7301796,825.11696,116.33681) ">
    <path fill="#072342" fill-rule="nonzero" d="m-8.370823,-27.357065l-3.314,0l0,4.254l3.295,0l0,-0.901l-2.248,0l0,-0.801l2.064,0l0,-0.85l-2.064,0l0,-0.801l2.267,0l0,-0.901z" id="path4208"/>
   </g>
   <g stroke="null" id="g4210" transform="matrix(5.7301796,0,0,-5.7301796,855.13571,116.33681) ">
    <path fill="#072342" fill-rule="nonzero" d="m-8.370823,-27.357065l-3.314,0l0,4.254l3.295,0l0,-0.901l-2.247,0l0,-0.801l2.063,0l0,-0.85l-2.063,0l0,-0.801l2.266,0l0,-0.901z" id="path4212"/>
   </g>
   <g stroke="null" transform="matrix(5.7301796,0,0,-5.7301796,-1809.0259,1720.9092) " id="g4214">
    <g stroke="null" id="g4216" clip-path="url(#clipPath4220)">
     <g stroke="null" id="g4222">
      <path fill="#072342" fill-rule="nonzero" d="m460.172176,256.918234c0.698,0 1.261,-0.196 1.688,-0.587c0.429,-0.392 0.642,-0.905 0.642,-1.54c0,-0.635 -0.213,-1.148 -0.642,-1.54c-0.427,-0.391 -0.99,-0.587 -1.688,-0.587l-1.683,0l0,4.254l1.683,0zm-1.721,-3.346c0.398,0 0.716,0.111 0.955,0.333c0.239,0.223 0.359,0.518 0.359,0.886c0,0.368 -0.12,0.663 -0.359,0.886c-0.239,0.222 -0.557,0.333 -0.955,0.333l-0.597,0l0,-2.438l0.597,0z" id="path4224"/>
     </g>
     <g stroke="null" id="g4226">
      <path fill="#072342" fill-rule="nonzero" d="m468.093563,256.36614c0.438,-0.432 0.657,-0.959 0.657,-1.581c0,-0.618 -0.219,-1.142 -0.657,-1.572c-0.437,-0.429 -0.974,-0.644 -1.609,-0.644c-0.635,0 -1.172,0.215 -1.61,0.644c-0.438,0.43 -0.657,0.954 -0.657,1.572c0,0.622 0.219,1.149 0.657,1.581c0.438,0.431 0.975,0.647 1.61,0.647c0.635,0 1.172,-0.216 1.609,-0.647m-0.739,-2.48c0.232,0.239 0.349,0.539 0.349,0.899c0,0.364 -0.117,0.666 -0.349,0.907c-0.233,0.242 -0.523,0.363 -0.87,0.363c-0.348,0 -0.638,-0.121 -0.87,-0.363c-0.233,-0.241 -0.349,-0.543 -0.349,-0.907c0,-0.36 0.116,-0.66 0.349,-0.899c0.232,-0.239 0.522,-0.359 0.87,-0.359c0.347,0 0.637,0.12 0.87,0.359" id="path4228"/>
     </g>
    </g>
   </g>
   <g stroke="null" id="g4230" transform="matrix(5.7301796,0,0,-5.7301796,963.75463,116.33681) ">
    <path fill="#072342" fill-rule="nonzero" d="m-8.370823,-27.357065l-1.016,0l0,2.12l-1.111,-2.12l-0.648,0l-1.117,2.134l0,-2.134l-1.016,0l0,4.254l1.029,0l1.428,-2.635l1.429,2.635l1.022,0l0,-4.254z" id="path4232"/>
   </g>
   <g stroke="null" transform="matrix(5.7301796,0,0,-5.7301796,-1809.0259,1720.9092) " id="g4262">
    <path fill="#43b0e8" fill-rule="nonzero" d="m377.950466,276.655325c1.99,-1.981 2.985,-4.399 2.985,-7.254c0,-2.835 -0.995,-5.238 -2.985,-7.209c-1.991,-1.971 -4.423,-2.957 -7.297,-2.957c-2.874,0 -5.307,0.986 -7.297,2.957c-1.99,1.971 -2.986,4.374 -2.986,7.209c0,2.855 0.996,5.273 2.986,7.254c1.99,1.98 4.423,2.971 7.297,2.971c2.874,0 5.306,-0.991 7.297,-2.971m-2.826,-11.856c1.214,1.223 1.821,2.758 1.821,4.602c0,1.845 -0.607,3.389 -1.821,4.632c-1.214,1.243 -2.704,1.864 -4.471,1.864c-1.767,0 -3.258,-0.621 -4.472,-1.864c-1.213,-1.243 -1.82,-2.787 -1.82,-4.632c0,-1.844 0.607,-3.379 1.82,-4.602c1.214,-1.224 2.705,-1.835 4.472,-1.835c1.767,0 3.257,0.611 4.471,1.835" id="path4264"/>
   </g>
   <g stroke="null" transform="matrix(5.7301796,0,0,-5.7301796,-1809.0259,1720.9092) " id="g4266">
    <path fill="#43b0e8" fill-rule="nonzero" d="m397.785885,272.44573c1.427,-1.466 2.141,-3.306 2.141,-5.52c0,-2.214 -0.709,-4.049 -2.127,-5.505c-1.417,-1.457 -3.087,-2.185 -5.01,-2.185c-1.903,0 -3.505,0.524 -4.806,1.573l0,-6.088l-3.845,0l0,19.487l3.845,0l0,-1.165c1.281,1.068 2.884,1.602 4.806,1.602c1.903,0 3.568,-0.733 4.996,-2.199m-2.738,-8.681c0.767,0.787 1.15,1.84 1.15,3.161c0,1.321 -0.383,2.379 -1.15,3.175c-0.767,0.796 -1.743,1.194 -2.928,1.194c-1.087,0 -2.049,-0.408 -2.884,-1.223c-0.835,-0.816 -1.252,-1.864 -1.252,-3.146c0,-1.282 0.417,-2.325 1.252,-3.132c0.835,-0.805 1.797,-1.208 2.884,-1.208c1.185,0 2.161,0.393 2.928,1.179" id="path4268"/>
   </g>
   <g stroke="null" transform="matrix(5.7301796,0,0,-5.7301796,-1809.0259,1720.9092) " id="g4270">
    <path fill="#43b0e8" fill-rule="nonzero" d="m416.558376,265.90624l-11.069,0c0.194,-1.029 0.626,-1.85 1.296,-2.462c0.67,-0.611 1.451,-0.917 2.345,-0.917c1.651,0 2.854,0.641 3.612,1.922l3.437,-0.728c-0.621,-1.476 -1.544,-2.592 -2.767,-3.35c-1.224,-0.757 -2.651,-1.136 -4.282,-1.136c-2.097,0 -3.865,0.719 -5.302,2.156c-1.437,1.437 -2.155,3.282 -2.155,5.534c0,2.253 0.723,4.103 2.17,5.549c1.446,1.448 3.228,2.171 5.345,2.171c1.981,0 3.685,-0.695 5.112,-2.083c1.427,-1.388 2.18,-3.17 2.258,-5.345l0,-1.311zm-9.598,4.69c-0.69,-0.466 -1.141,-1.127 -1.355,-1.981l7.02,0c-0.233,0.893 -0.66,1.563 -1.281,2.01c-0.622,0.447 -1.34,0.67 -2.156,0.67c-0.796,0 -1.539,-0.233 -2.228,-0.699" id="path4272"/>
   </g>
   <g stroke="null" transform="matrix(5.7301796,0,0,-5.7301796,-1809.0259,1720.9092) " id="g4274">
    <path fill="#43b0e8" fill-rule="nonzero" d="m432.112087,272.940847c1.068,-1.136 1.602,-2.607 1.602,-4.413l0,-8.855l-3.845,0l0,8.039c0,1.03 -0.267,1.855 -0.801,2.477c-0.534,0.621 -1.248,0.931 -2.141,0.931c-2.408,0 -3.612,-1.67 -3.612,-5.01l0,-6.437l-3.845,0l0,14.535l3.845,0l0,-1.311c1.165,1.166 2.69,1.748 4.573,1.748c1.748,0 3.156,-0.568 4.224,-1.704" id="path4276"/>
   </g>
   <g stroke="null" id="g4278" transform="matrix(5.7301796,0,0,-5.7301796,860.06303,76.178524) ">
    <path fill="#43b0e8" fill-rule="nonzero" d="m-8.370823,-27.357065l-4.253,0l-3.787,13.166l-3.816,-13.166l-4.224,0l-5.68,19.517l4.136,0l3.729,-13.458l3.933,13.458l3.816,0l3.932,-13.458l3.729,13.458l4.165,0l-5.68,-19.517z" id="path4280"/>
   </g>
   <g transform="matrix(5.7301796,0,0,-5.7301796,-1809.0259,1720.9092) " stroke="null" id="g4290">
    <path fill="#43b0e8" fill-rule="nonzero" d="m475.07449,274.295248l-0.204,-3.699l-0.844,0c-3.457,0 -5.185,-2.078 -5.185,-6.234l0,-4.69l-3.846,0l0,14.536l3.846,0l0,-2.651c1.32,1.903 3.058,2.855 5.214,2.855c0.447,0 0.786,-0.039 1.019,-0.117" id="path4292"/>
   </g>
   <g transform="matrix(5.7301796,0,0,-5.7301796,-1809.0259,1720.9092) " stroke="null" id="g4294">
    <path fill="#43b0e8" fill-rule="nonzero" d="m488.356686,260.313345c-1.34,-0.719 -2.603,-1.078 -3.787,-1.078c-1.787,0 -3.185,0.481 -4.195,1.442c-1.01,0.961 -1.515,2.413 -1.515,4.355l0,6.03l-3.116,0l0,3.146l3.116,0l0,4.399l3.846,0l0,-4.399l4.748,0l0,-3.146l-4.748,0l0,-5.739c0,-1.67 0.709,-2.505 2.126,-2.505c0.738,0 1.544,0.233 2.418,0.699l1.107,-3.204z" id="path4296"/>
   </g>
   <g stroke="null" transform="matrix(5.7301796,0,0,-5.7301796,513.67103,116.33681) " id="g5242">
    <path fill="#072342" fill-rule="nonzero" id="path5240" d="m-8.370823,-27.357065l-1.124,0l-0.711,2.629l-0.718,-2.629l-1.117,0l-1.213,4.254l1.073,0l0.743,-2.679l0.73,2.679l0.997,0l0.731,-2.679l0.742,2.679l1.079,0l-1.212,-4.254z"/>
   </g>
   <path fill="#072342" fill-rule="nonzero" stroke-width="5.730179" id="path5244" d="m482.26081,248.723095l6.00516,0l0,24.37624l-6.00516,0l0,-24.37624z"/>
   <g stroke="null" id="g5252" transform="matrix(5.7301796,0,0,-5.7301796,-1809.0259,1720.9092) ">
    <g stroke="null" clip-path="url(#clipPath4156)" id="g5250">
     <g stroke="null" id="g5248">
      <path fill="#072342" fill-rule="nonzero" id="path5246" d="m405.553463,252.664236l-1.283,1.461l-0.304,0l0,-1.461l-1.048,0l0,4.254l2.152,0c0.462,0 0.832,-0.128 1.111,-0.384c0.28,-0.256 0.419,-0.592 0.419,-1.006c0,-0.347 -0.099,-0.641 -0.298,-0.88c-0.199,-0.239 -0.472,-0.397 -0.819,-0.473l1.333,-1.511l-1.263,0zm0.666,2.336c0.186,0 0.335,0.047 0.448,0.14c0.111,0.094 0.168,0.218 0.168,0.375c0,0.152 -0.057,0.275 -0.168,0.368c-0.113,0.093 -0.262,0.14 -0.448,0.14l-0.99,0l0,-1.023l0.99,0z"/>
     </g>
    </g>
   </g>
   <g stroke="null" transform="matrix(5.7301796,0,0,-5.7301796,598.70865,116.33681) " id="g5256">
    <path fill="#072342" fill-rule="nonzero" id="path5254" d="m-8.370823,-27.357065l-3.314,0l0,4.254l3.295,0l0,-0.901l-2.248,0l0,-0.801l2.064,0l0,-0.85l-2.064,0l0,-0.801l2.267,0l0,-0.901z"/>
   </g>
   <g stroke="null" transform="matrix(5.7301796,0,0,-5.7301796,627.74795,116.33681) " id="g5260">
    <path fill="#072342" fill-rule="nonzero" id="path5258" d="m-8.370823,-27.357065l-3.143,0l0,4.254l1.048,0l0,-3.34l2.095,0l0,-0.914z"/>
   </g>
   <g stroke="null" transform="matrix(5.7301796,0,0,-5.7301796,657.36708,116.33681) " id="g5264">
    <path fill="#072342" fill-rule="nonzero" id="path5262" d="m-8.370823,-27.357065l-3.314,0l0,4.254l3.295,0l0,-0.901l-2.248,0l0,-0.801l2.064,0l0,-0.85l-2.064,0l0,-0.801l2.267,0l0,-0.901z"/>
   </g>
   <g stroke="null" id="g5276" transform="matrix(5.7301796,0,0,-5.7301796,-1809.0259,1720.9092) ">
    <g stroke="null" clip-path="url(#clipPath4180)" id="g5274">
     <g stroke="null" id="g5268">
      <path fill="#072342" fill-rule="nonzero" id="path5266" d="m426.813778,256.68685c0.313,-0.218 0.51,-0.52 0.59,-0.905l-1.028,-0.209c-0.038,0.19 -0.127,0.337 -0.267,0.441c-0.139,0.104 -0.298,0.155 -0.476,0.155c-0.17,0 -0.307,-0.041 -0.413,-0.123c-0.105,-0.083 -0.158,-0.185 -0.158,-0.309c0,-0.186 0.114,-0.304 0.342,-0.355l0.883,-0.197c0.779,-0.173 1.168,-0.586 1.168,-1.238c0,-0.436 -0.167,-0.774 -0.501,-1.016c-0.335,-0.241 -0.752,-0.362 -1.251,-0.362c-0.495,0 -0.916,0.113 -1.261,0.34c-0.344,0.227 -0.545,0.542 -0.6,0.949l1.08,0.209c0.101,-0.418 0.381,-0.628 0.838,-0.628c0.195,0 0.348,0.041 0.46,0.121c0.113,0.08 0.169,0.186 0.169,0.317c0,0.102 -0.029,0.182 -0.086,0.242c-0.057,0.058 -0.16,0.103 -0.308,0.133l-0.889,0.19c-0.762,0.174 -1.143,0.584 -1.143,1.232c0,0.411 0.155,0.736 0.463,0.978c0.309,0.241 0.716,0.362 1.22,0.362c0.465,0 0.855,-0.109 1.168,-0.327"/>
     </g>
     <g stroke="null" id="g5272">
      <path fill="#072342" fill-rule="nonzero" id="path5270" d="m432.084774,256.68685c0.313,-0.218 0.51,-0.52 0.59,-0.905l-1.028,-0.209c-0.039,0.19 -0.127,0.337 -0.267,0.441c-0.14,0.104 -0.298,0.155 -0.476,0.155c-0.17,0 -0.307,-0.041 -0.413,-0.123c-0.106,-0.083 -0.158,-0.185 -0.158,-0.309c0,-0.186 0.114,-0.304 0.342,-0.355l0.883,-0.197c0.778,-0.173 1.168,-0.586 1.168,-1.238c0,-0.436 -0.167,-0.774 -0.501,-1.016c-0.335,-0.241 -0.752,-0.362 -1.251,-0.362c-0.495,0 -0.916,0.113 -1.261,0.34c-0.345,0.227 -0.545,0.542 -0.6,0.949l1.08,0.209c0.101,-0.418 0.381,-0.628 0.838,-0.628c0.195,0 0.348,0.041 0.46,0.121c0.113,0.08 0.169,0.186 0.169,0.317c0,0.102 -0.029,0.182 -0.086,0.242c-0.057,0.058 -0.16,0.103 -0.308,0.133l-0.889,0.19c-0.762,0.174 -1.143,0.584 -1.143,1.232c0,0.411 0.155,0.736 0.463,0.978c0.309,0.241 0.716,0.362 1.22,0.362c0.465,0 0.855,-0.109 1.168,-0.327"/>
     </g>
    </g>
   </g>
   <g stroke="null" transform="matrix(5.7301796,0,0,-5.7301796,751.10593,102.36537) " id="g5280">
    <path fill="#072342" fill-rule="nonzero" id="path5278" d="m-8.370823,-27.357065l1.994,0l0,-0.915l-1.994,0l0,-1.523l-1.048,0l0,4.254l3.289,0l0,-0.921l-2.241,0l0,-0.895z"/>
   </g>
   <g stroke="null" id="g5288" transform="matrix(5.7301796,0,0,-5.7301796,-1809.0259,1720.9092) ">
    <g stroke="null" clip-path="url(#clipPath4200)" id="g5286">
     <g stroke="null" id="g5284">
      <path fill="#072342" fill-rule="nonzero" id="path5282" d="m445.064663,252.664236l-1.283,1.461l-0.304,0l0,-1.461l-1.048,0l0,4.254l2.152,0c0.462,0 0.832,-0.128 1.111,-0.384c0.28,-0.256 0.419,-0.592 0.419,-1.006c0,-0.347 -0.099,-0.641 -0.298,-0.88c-0.199,-0.239 -0.472,-0.397 -0.819,-0.473l1.333,-1.511l-1.263,0zm0.666,2.336c0.186,0 0.335,0.047 0.448,0.14c0.112,0.094 0.168,0.218 0.168,0.375c0,0.152 -0.056,0.275 -0.168,0.368c-0.113,0.093 -0.262,0.14 -0.448,0.14l-0.99,0l0,-1.023l0.99,0z"/>
     </g>
    </g>
   </g>
   <g stroke="null" transform="matrix(5.7301796,0,0,-5.7301796,825.11696,116.33681) " id="g5292">
    <path fill="#072342" fill-rule="nonzero" id="path5290" d="m-8.370823,-27.357065l-3.314,0l0,4.254l3.295,0l0,-0.901l-2.248,0l0,-0.801l2.064,0l0,-0.85l-2.064,0l0,-0.801l2.267,0l0,-0.901z"/>
   </g>
   <g stroke="null" transform="matrix(5.7301796,0,0,-5.7301796,855.13571,116.33681) " id="g5296">
    <path fill="#072342" fill-rule="nonzero" id="path5294" d="m-8.370823,-27.357065l-3.314,0l0,4.254l3.295,0l0,-0.901l-2.247,0l0,-0.801l2.063,0l0,-0.85l-2.063,0l0,-0.801l2.266,0l0,-0.901z"/>
   </g>
   <g stroke="null" id="g5308" transform="matrix(5.7301796,0,0,-5.7301796,-1809.0259,1720.9092) ">
    <g stroke="null" clip-path="url(#clipPath4220)" id="g5306">
     <g stroke="null" id="g5300">
      <path fill="#072342" fill-rule="nonzero" id="path5298" d="m460.172176,256.918234c0.698,0 1.261,-0.196 1.688,-0.587c0.429,-0.392 0.642,-0.905 0.642,-1.54c0,-0.635 -0.213,-1.148 -0.642,-1.54c-0.427,-0.391 -0.99,-0.587 -1.688,-0.587l-1.683,0l0,4.254l1.683,0zm-1.721,-3.346c0.398,0 0.716,0.111 0.955,0.333c0.239,0.223 0.359,0.518 0.359,0.886c0,0.368 -0.12,0.663 -0.359,0.886c-0.239,0.222 -0.557,0.333 -0.955,0.333l-0.597,0l0,-2.438l0.597,0z"/>
     </g>
     <g stroke="null" id="g5304">
      <path fill="#072342" fill-rule="nonzero" id="path5302" d="m468.093563,256.36614c0.438,-0.432 0.657,-0.959 0.657,-1.581c0,-0.618 -0.219,-1.142 -0.657,-1.572c-0.437,-0.429 -0.974,-0.644 -1.609,-0.644c-0.635,0 -1.172,0.215 -1.61,0.644c-0.438,0.43 -0.657,0.954 -0.657,1.572c0,0.622 0.219,1.149 0.657,1.581c0.438,0.431 0.975,0.647 1.61,0.647c0.635,0 1.172,-0.216 1.609,-0.647m-0.739,-2.48c0.232,0.239 0.349,0.539 0.349,0.899c0,0.364 -0.117,0.666 -0.349,0.907c-0.233,0.242 -0.523,0.363 -0.87,0.363c-0.348,0 -0.638,-0.121 -0.87,-0.363c-0.233,-0.241 -0.349,-0.543 -0.349,-0.907c0,-0.36 0.116,-0.66 0.349,-0.899c0.232,-0.239 0.522,-0.359 0.87,-0.359c0.347,0 0.637,0.12 0.87,0.359"/>
     </g>
    </g>
   </g>
   <g stroke="null" transform="matrix(5.7301796,0,0,-5.7301796,963.75463,116.33681) " id="g5312">
    <path fill="#072342" fill-rule="nonzero" id="path5310" d="m-8.370823,-27.357065l-1.016,0l0,2.12l-1.111,-2.12l-0.648,0l-1.117,2.134l0,-2.134l-1.016,0l0,4.254l1.029,0l1.428,-2.635l1.429,2.635l1.022,0l0,-4.254z"/>
   </g>
   <g stroke="null" transform="matrix(5.7301796,0,0,-5.7301796,-1809.0259,1720.9092) " id="g5336">
    <path fill="#43b0e8" fill-rule="nonzero" id="path5334" d="m377.950466,276.655325c1.99,-1.981 2.985,-4.399 2.985,-7.254c0,-2.835 -0.995,-5.238 -2.985,-7.209c-1.991,-1.971 -4.423,-2.957 -7.297,-2.957c-2.874,0 -5.307,0.986 -7.297,2.957c-1.99,1.971 -2.986,4.374 -2.986,7.209c0,2.855 0.996,5.273 2.986,7.254c1.99,1.98 4.423,2.971 7.297,2.971c2.874,0 5.306,-0.991 7.297,-2.971m-2.826,-11.856c1.214,1.223 1.821,2.758 1.821,4.602c0,1.845 -0.607,3.389 -1.821,4.632c-1.214,1.243 -2.704,1.864 -4.471,1.864c-1.767,0 -3.258,-0.621 -4.472,-1.864c-1.213,-1.243 -1.82,-2.787 -1.82,-4.632c0,-1.844 0.607,-3.379 1.82,-4.602c1.214,-1.224 2.705,-1.835 4.472,-1.835c1.767,0 3.257,0.611 4.471,1.835"/>
   </g>
   <g stroke="null" transform="matrix(5.7301796,0,0,-5.7301796,-1809.0259,1720.9092) " id="g5340">
    <path fill="#43b0e8" fill-rule="nonzero" id="path5338" d="m397.785885,272.44573c1.427,-1.466 2.141,-3.306 2.141,-5.52c0,-2.214 -0.709,-4.049 -2.127,-5.505c-1.417,-1.457 -3.087,-2.185 -5.01,-2.185c-1.903,0 -3.505,0.524 -4.806,1.573l0,-6.088l-3.845,0l0,19.487l3.845,0l0,-1.165c1.281,1.068 2.884,1.602 4.806,1.602c1.903,0 3.568,-0.733 4.996,-2.199m-2.738,-8.681c0.767,0.787 1.15,1.84 1.15,3.161c0,1.321 -0.383,2.379 -1.15,3.175c-0.767,0.796 -1.743,1.194 -2.928,1.194c-1.087,0 -2.049,-0.408 -2.884,-1.223c-0.835,-0.816 -1.252,-1.864 -1.252,-3.146c0,-1.282 0.417,-2.325 1.252,-3.132c0.835,-0.805 1.797,-1.208 2.884,-1.208c1.185,0 2.161,0.393 2.928,1.179"/>
   </g>
   <g stroke="null" transform="matrix(5.7301796,0,0,-5.7301796,-1809.0259,1720.9092) " id="g5344">
    <path fill="#43b0e8" fill-rule="nonzero" id="path5342" d="m416.558376,265.90624l-11.069,0c0.194,-1.029 0.626,-1.85 1.296,-2.462c0.67,-0.611 1.451,-0.917 2.345,-0.917c1.651,0 2.854,0.641 3.612,1.922l3.437,-0.728c-0.621,-1.476 -1.544,-2.592 -2.767,-3.35c-1.224,-0.757 -2.651,-1.136 -4.282,-1.136c-2.097,0 -3.865,0.719 -5.302,2.156c-1.437,1.437 -2.155,3.282 -2.155,5.534c0,2.253 0.723,4.103 2.17,5.549c1.446,1.448 3.228,2.171 5.345,2.171c1.981,0 3.685,-0.695 5.112,-2.083c1.427,-1.388 2.18,-3.17 2.258,-5.345l0,-1.311zm-9.598,4.69c-0.69,-0.466 -1.141,-1.127 -1.355,-1.981l7.02,0c-0.233,0.893 -0.66,1.563 -1.281,2.01c-0.622,0.447 -1.34,0.67 -2.156,0.67c-0.796,0 -1.539,-0.233 -2.228,-0.699"/>
   </g>
   <g stroke="null" transform="matrix(5.7301796,0,0,-5.7301796,-1809.0259,1720.9092) " id="g5348">
    <path fill="#43b0e8" fill-rule="nonzero" id="path5346" d="m432.112087,272.940847c1.068,-1.136 1.602,-2.607 1.602,-4.413l0,-8.855l-3.845,0l0,8.039c0,1.03 -0.267,1.855 -0.801,2.477c-0.534,0.621 -1.248,0.931 -2.141,0.931c-2.408,0 -3.612,-1.67 -3.612,-5.01l0,-6.437l-3.845,0l0,14.535l3.845,0l0,-1.311c1.165,1.166 2.69,1.748 4.573,1.748c1.748,0 3.156,-0.568 4.224,-1.704"/>
   </g>
   <g stroke="null" transform="matrix(5.7301796,0,0,-5.7301796,860.06303,76.178524) " id="g5356">
    <path fill="#43b0e8" fill-rule="nonzero" id="path5354" d="m-8.370823,-27.357065l-4.253,0l-3.787,13.166l-3.816,-13.166l-4.224,0l-5.68,19.517l4.136,0l3.729,-13.458l3.933,13.458l3.816,0l3.932,-13.458l3.729,13.458l4.165,0l-5.68,-19.517z"/>
   </g>
   <g transform="matrix(5.7301796,0,0,-5.7301796,-1809.0259,1720.9092) " stroke="null" id="g5360">
    <path fill="#43b0e8" fill-rule="nonzero" id="path5358" d="m475.07449,274.295248l-0.204,-3.699l-0.844,0c-3.457,0 -5.185,-2.078 -5.185,-6.234l0,-4.69l-3.846,0l0,14.536l3.846,0l0,-2.651c1.32,1.903 3.058,2.855 5.214,2.855c0.447,0 0.786,-0.039 1.019,-0.117"/>
   </g>
   <g transform="matrix(5.7301796,0,0,-5.7301796,-1809.0259,1720.9092) " stroke="null" id="g5364">
    <path fill="#43b0e8" fill-rule="nonzero" id="path5362" d="m488.356686,260.313345c-1.34,-0.719 -2.603,-1.078 -3.787,-1.078c-1.787,0 -3.185,0.481 -4.195,1.442c-1.01,0.961 -1.515,2.413 -1.515,4.355l0,6.03l-3.116,0l0,3.146l3.116,0l0,4.399l3.846,0l0,-4.399l4.748,0l0,-3.146l-4.748,0l0,-5.739c0,-1.67 0.709,-2.505 2.126,-2.505c0.738,0 1.544,0.233 2.418,0.699l1.107,-3.204z"/>
   </g>
   <g stroke="null" transform="matrix(2.772814280497465,0,0,-2.772814280497465,-849.5943547591955,888.3397808846862) " id="g4246">
    <path fill="#43b0e8" fill-rule="nonzero" d="m351.482058,289.808812l3.095,-3.095c3.885,3.885 9.249,6.292 15.165,6.292c5.915,0 11.279,-2.407 15.164,-6.292l3.095,3.095c-4.678,4.678 -11.137,7.575 -18.259,7.575c-7.123,0 -13.582,-2.897 -18.26,-7.575" id="path4248"/>
   </g>
   <g stroke="null" transform="matrix(2.772814280497465,0,0,-2.772814280497465,-849.5943547591955,888.3397808846862) " id="g4250">
    <path fill="#43b0e8" fill-rule="nonzero" d="m357.052859,284.238225l3.095,-3.095c2.458,2.458 5.851,3.98 9.594,3.98c3.742,0 7.136,-1.522 9.594,-3.98l3.094,3.095c-3.251,3.251 -7.738,5.264 -12.688,5.264c-4.95,0 -9.438,-2.013 -12.689,-5.264" id="path4252"/>
   </g>
   <g stroke="null" transform="matrix(2.772814280497465,0,0,-2.772814280497465,-849.5943547591955,888.3397808846862) " id="g4254">
    <path fill="#43b0e8" fill-rule="nonzero" d="m362.62366,278.667516l3.095,-3.095c1.03,1.031 2.453,1.669 4.023,1.669c1.57,0 2.992,-0.638 4.023,-1.669l3.095,3.095c-1.824,1.824 -4.341,2.953 -7.118,2.953c-2.777,0 -5.294,-1.129 -7.118,-2.953" id="path4256"/>
   </g>
   <g stroke="null" transform="matrix(2.772814280497465,0,0,-2.772814280497465,-849.5943547591955,888.3397808846862) " id="g5320">
    <path fill="#43b0e8" fill-rule="nonzero" id="path5318" d="m351.482058,289.808812l3.095,-3.095c3.885,3.885 9.249,6.292 15.165,6.292c5.915,0 11.279,-2.407 15.164,-6.292l3.095,3.095c-4.678,4.678 -11.137,7.575 -18.259,7.575c-7.123,0 -13.582,-2.897 -18.26,-7.575"/>
   </g>
   <g stroke="null" transform="matrix(2.772814280497465,0,0,-2.772814280497465,-849.5943547591955,888.3397808846862) " id="g5324">
    <path fill="#43b0e8" fill-rule="nonzero" id="path5322" d="m357.052859,284.238225l3.095,-3.095c2.458,2.458 5.851,3.98 9.594,3.98c3.742,0 7.136,-1.522 9.594,-3.98l3.094,3.095c-3.251,3.251 -7.738,5.264 -12.688,5.264c-4.95,0 -9.438,-2.013 -12.689,-5.264"/>
   </g>
   <g stroke="null" transform="matrix(2.772814280497465,0,0,-2.772814280497465,-849.5943547591955,888.3397808846862) " id="g5328">
    <path fill="#43b0e8" fill-rule="nonzero" id="path5326" d="m362.62366,278.667516l3.095,-3.095c1.03,1.031 2.453,1.669 4.023,1.669c1.57,0 2.992,-0.638 4.023,-1.669l3.095,3.095c-1.824,1.824 -4.341,2.953 -7.118,2.953c-2.777,0 -5.294,-1.129 -7.118,-2.953"/>
   </g>
   <rect stroke="null" id="svg_2" height="57" width="108.000014" y="176.27533" x="84.999998" stroke-width="1.5" fill="#43b0e8"/>
   <path stroke="null" id="svg_3" d="m182.765006,176.297373l29.499996,0l0,0c16.292401,0 29.499996,12.767246 29.499996,28.516442c0,15.749199 -13.207596,28.516442 -29.499996,28.516442l-29.499996,0l0,-57.032885z" stroke-width="1.5" fill="#43b0e8"/>
   <path stroke="null" transform="rotate(-180 60.26500701904297,204.85409545898438) " id="svg_4" d="m30.76501,176.337658l29.49999,0l0,0c16.2924,0 29.5,12.76725 29.5,28.51645c0,15.74919 -13.2076,28.51644 -29.5,28.51644l-29.49999,0l0,-57.03289z" stroke-width="1.5" fill="#43b0e8"/>
   <text font-weight="bold" transform="matrix(1.7400101533536998,0,0,1.9680561252711453,-56.590453556501274,-180.28251617138784) " xml:space="preserve" text-anchor="start" font-family="'Times New Roman', Times, serif" font-size="24" id="svg_5" y="204.490352" x="106" stroke-width="1.5" fill="#072342">HUB</text>
  </g>
 </g>
</svg>